<?xml version="1.0" encoding="UTF-8"?>
<!DOCTYPE svg PUBLIC "-//W3C//DTD SVG 1.1//EN" "http://www.w3.org/Graphics/SVG/1.1/DTD/svg11.dtd">
<svg xmlns="http://www.w3.org/2000/svg" version="1.1" width="128px" height="128px" style="shape-rendering:geometricPrecision; text-rendering:geometricPrecision; image-rendering:optimizeQuality; fill-rule:evenodd; clip-rule:evenodd" xmlns:xlink="http://www.w3.org/1999/xlink">
<g><path style="opacity:1" fill="#2d3637" d="M 55.5,10.5 C 60.5,10.5 65.5,10.5 70.5,10.5C 77.4817,12.1654 84.1484,14.8321 90.5,18.5C 89.9094,19.1515 89.2427,19.8182 88.5,20.5C 89.8333,21.8333 89.8333,23.1667 88.5,24.5C 87.0926,27.4854 85.0926,29.9854 82.5,32C 83.1667,32.3333 83.8333,32.6667 84.5,33C 82.9632,34.1096 82.2965,35.6096 82.5,37.5C 84.4832,37.1568 85.8166,37.8235 86.5,39.5C 79.4886,39.8345 75.1553,43.5012 73.5,50.5C 72.6236,50.3691 71.9569,50.7025 71.5,51.5C 70.5911,55.9142 68.9244,59.9142 66.5,63.5C 67.0356,58.8084 67.7022,54.1417 68.5,49.5C 66.8647,48.3192 65.198,48.3192 63.5,49.5C 62.3777,48.3698 61.0443,47.7031 59.5,47.5C 61.8822,46.4691 64.2155,45.1357 66.5,43.5C 64.4206,41.8433 64.254,39.8433 66,37.5C 66.3333,37.8333 66.6667,38.1667 67,38.5C 68,37.1667 69,35.8333 70,34.5C 72.215,35.8198 73.715,35.1531 74.5,32.5C 73.4229,30.2706 72.7563,27.9372 72.5,25.5C 73.675,25.719 74.675,25.3857 75.5,24.5C 73.8872,23.5726 72.2205,22.7393 70.5,22C 73.1667,21 73.1667,20 70.5,19C 71.1667,18.3333 71.8333,17.6667 72.5,17C 69.7896,15.2532 66.7896,14.2532 63.5,14C 63.8333,13.6667 64.1667,13.3333 64.5,13C 59.4724,12.4117 54.4724,12.5784 49.5,13.5C 51.3713,12.2028 53.3713,11.2028 55.5,10.5 Z"/></g>
<g><path style="opacity:1" fill="#182325" d="M 59.5,47.5 C 61.8966,56.1468 59.7299,63.4801 53,69.5C 52.6012,69.2716 52.4346,68.9382 52.5,68.5C 63.0509,55.946 61.3843,45.6127 47.5,37.5C 53.1477,36.1729 57.8143,37.8396 61.5,42.5C 63.0862,40.3295 64.4196,37.9962 65.5,35.5C 63.3586,34.1924 61.3586,32.6924 59.5,31C 60.1667,30.6667 60.8333,30.3333 61.5,30C 57.7628,29.0009 57.7628,27.6675 61.5,26C 59.3601,24.6481 57.1934,24.1481 55,24.5C 55.0187,22.8925 55.1854,21.2259 55.5,19.5C 51.6225,19.3689 48.1225,18.3689 45,16.5C 43.3419,16.6752 42.0086,17.3418 41,18.5C 40.3292,17.7476 39.4959,17.4142 38.5,17.5C 41.8004,15.3582 45.467,14.0249 49.5,13.5C 54.4724,12.5784 59.4724,12.4117 64.5,13C 64.1667,13.3333 63.8333,13.6667 63.5,14C 66.7896,14.2532 69.7896,15.2532 72.5,17C 71.8333,17.6667 71.1667,18.3333 70.5,19C 73.1667,20 73.1667,21 70.5,22C 72.2205,22.7393 73.8872,23.5726 75.5,24.5C 74.675,25.3857 73.675,25.719 72.5,25.5C 72.7563,27.9372 73.4229,30.2706 74.5,32.5C 73.715,35.1531 72.215,35.8198 70,34.5C 69,35.8333 68,37.1667 67,38.5C 66.6667,38.1667 66.3333,37.8333 66,37.5C 64.254,39.8433 64.4206,41.8433 66.5,43.5C 64.2155,45.1357 61.8822,46.4691 59.5,47.5 Z"/></g>
<g><path style="opacity:0.975" fill="#dbdcdf" d="M 70.5,10.5 C 84.7196,11.1864 97.3862,16.853 108.5,27.5C 110.469,31.3816 112.136,35.3816 113.5,39.5C 112.637,38.537 111.97,38.537 111.5,39.5C 113.69,43.21 114.69,47.21 114.5,51.5C 111.208,51.3531 108.208,50.3531 105.5,48.5C 103.473,48.6621 101.473,48.4955 99.5,48C 98.6634,46.9887 98.33,45.8221 98.5,44.5C 98.8333,44.5 99.1667,44.5 99.5,44.5C 100.898,46.1088 102.565,46.9421 104.5,47C 96.8138,41.7957 93.3138,34.629 94,25.5C 94.5613,24.9781 95.228,24.6448 96,24.5C 98.4332,26.1377 100.933,27.3044 103.5,28C 99.4919,24.3351 95.1586,21.1684 90.5,18.5C 84.1484,14.8321 77.4817,12.1654 70.5,10.5 Z"/></g>
<g><path style="opacity:1" fill="#515b5e" d="M 90.5,18.5 C 95.1586,21.1684 99.4919,24.3351 103.5,28C 100.933,27.3044 98.4332,26.1377 96,24.5C 95.228,24.6448 94.5613,24.9781 94,25.5C 93.3138,34.629 96.8138,41.7957 104.5,47C 102.565,46.9421 100.898,46.1088 99.5,44.5C 99.0472,43.5416 98.3805,42.7083 97.5,42C 93.3673,42.0936 89.7006,41.2603 86.5,39.5C 85.8166,37.8235 84.4832,37.1568 82.5,37.5C 82.2965,35.6096 82.9632,34.1096 84.5,33C 83.8333,32.6667 83.1667,32.3333 82.5,32C 85.0926,29.9854 87.0926,27.4854 88.5,24.5C 89.8333,23.1667 89.8333,21.8333 88.5,20.5C 89.2427,19.8182 89.9094,19.1515 90.5,18.5 Z"/></g>
<g><path style="opacity:1" fill="#2d3234" d="M 96.5,33.5 C 102.116,34.7517 104.45,38.0851 103.5,43.5C 99.6822,41.1951 97.3488,37.8617 96.5,33.5 Z"/></g>
<g><path style="opacity:1" fill="#a35b49" d="M 86.5,39.5 C 89.7006,41.2603 93.3673,42.0936 97.5,42C 98.3805,42.7083 99.0472,43.5416 99.5,44.5C 99.1667,44.5 98.8333,44.5 98.5,44.5C 92.2952,42.6509 85.9619,42.1509 79.5,43C 76.8792,45.1141 74.8792,47.6141 73.5,50.5C 75.1553,43.5012 79.4886,39.8345 86.5,39.5 Z"/></g>
<g><path style="opacity:1" fill="#cf4c27" d="M 98.5,44.5 C 98.33,45.8221 98.6634,46.9887 99.5,48C 101.473,48.4955 103.473,48.6621 105.5,48.5C 107.834,51.8344 109.667,55.501 111,59.5C 111.765,61.0657 111.598,62.3991 110.5,63.5C 110.672,62.5084 110.338,61.8417 109.5,61.5C 108.441,56.3418 105.274,53.3418 100,52.5C 98.3189,52.6083 97.1522,53.2749 96.5,54.5C 94.5,55.8333 92.8333,57.5 91.5,59.5C 90.5,59.5 89.5,59.5 88.5,59.5C 88.6168,61.4835 87.9501,63.1502 86.5,64.5C 83.1667,67.1667 80.1667,70.1667 77.5,73.5C 78.9554,74.7445 80.2887,74.5778 81.5,73C 84.8168,72.5017 88.1501,72.335 91.5,72.5C 89.0005,74.1362 86.3338,75.6362 83.5,77C 82.1667,78 82.1667,79 83.5,80C 90.4676,81.7532 97.4676,81.9198 104.5,80.5C 105.182,81.2427 105.849,81.9094 106.5,82.5C 106.5,83.1667 106.167,83.5 105.5,83.5C 99.361,85.2613 93.0276,85.7613 86.5,85C 83.6091,83.2079 80.6091,81.7079 77.5,80.5C 75.772,79.621 73.9386,78.9543 72,78.5C 69.6403,79.78 67.1403,80.4467 64.5,80.5C 64.2694,76.007 64.936,71.6737 66.5,67.5C 66.5,66.1667 66.5,64.8333 66.5,63.5C 68.9244,59.9142 70.5911,55.9142 71.5,51.5C 71.9569,50.7025 72.6236,50.3691 73.5,50.5C 74.8792,47.6141 76.8792,45.1141 79.5,43C 85.9619,42.1509 92.2952,42.6509 98.5,44.5 Z"/></g>
<g><path style="opacity:0.212" fill="#d4d7d8" d="M 55.5,10.5 C 53.3713,11.2028 51.3713,12.2028 49.5,13.5C 45.467,14.0249 41.8004,15.3582 38.5,17.5C 34.6082,19.0621 31.2749,21.3954 28.5,24.5C 20.5526,30.0134 14.7192,37.3467 11,46.5C 7.0386,62.8237 8.0386,78.8237 14,94.5C 16.7477,99.252 20.2477,103.419 24.5,107C 26.0249,108.009 27.6916,108.509 29.5,108.5C 33.5911,109.895 37.9244,110.728 42.5,111C 41.944,111.383 41.6107,111.883 41.5,112.5C 41.1667,112.5 40.8333,112.5 40.5,112.5C 39.1667,112.5 37.8333,112.5 36.5,112.5C 30.5,111.167 24.5,109.833 18.5,108.5C 15.7629,104.03 13.2629,99.363 11,94.5C 9.3745,90.6647 8.3745,86.6647 8,82.5C 7.66667,83.5 7.33333,84.5 7,85.5C 6.33333,73.1667 6.33333,60.8333 7,48.5C 7.33333,49.5 7.66667,50.5 8,51.5C 8.15184,45.6859 9.81851,40.3526 13,35.5C 13.3333,35.8333 13.6667,36.1667 14,36.5C 20.7347,23.1665 31.568,14.9999 46.5,12C 46.1667,11.6667 45.8333,11.3333 45.5,11C 48.8168,10.5017 52.1501,10.335 55.5,10.5 Z"/></g>
<g><path style="opacity:1" fill="#737779" d="M 113.5,39.5 C 113.5,39.8333 113.5,40.1667 113.5,40.5C 119.675,52.8184 121.008,65.4851 117.5,78.5C 118.32,72.2026 118.653,65.8692 118.5,59.5C 116.833,59.5 115.167,59.5 113.5,59.5C 113.5,60.8333 113.5,62.1667 113.5,63.5C 112.348,64.625 111.348,64.625 110.5,63.5C 111.598,62.3991 111.765,61.0657 111,59.5C 109.667,55.501 107.834,51.8344 105.5,48.5C 108.208,50.3531 111.208,51.3531 114.5,51.5C 114.69,47.21 113.69,43.21 111.5,39.5C 111.97,38.537 112.637,38.537 113.5,39.5 Z"/></g>
<g><path style="opacity:1" fill="#8e3229" d="M 109.5,61.5 C 105.999,57.9112 101.665,55.5779 96.5,54.5C 97.1522,53.2749 98.3189,52.6083 100,52.5C 105.274,53.3418 108.441,56.3418 109.5,61.5 Z"/></g>
<g><path style="opacity:0.384" fill="#d4d6d9" d="M 113.5,40.5 C 116.35,41.7102 118.184,43.3769 119,45.5C 119.333,48.1667 119.667,50.8333 120,53.5C 120.333,52.5 120.667,51.5 121,50.5C 122.138,61.6595 121.471,72.6595 119,83.5C 114.808,89.9451 108.975,93.9451 101.5,95.5C 100.909,94.8485 100.243,94.1818 99.5,93.5C 102.433,91.5376 105.433,89.8709 108.5,88.5C 113.576,87.0882 116.576,83.7548 117.5,78.5C 121.008,65.4851 119.675,52.8184 113.5,40.5 Z"/></g>
<g><path style="opacity:0.004" fill="#f9f4ff" d="M 4.5,55.5 C 5.65515,62.6549 5.82182,69.9882 5,77.5C 4.50034,70.1742 4.33368,62.8409 4.5,55.5 Z"/></g>
<g><path style="opacity:1" fill="#cdd1d7" d="M 47.5,37.5 C 61.3843,45.6127 63.0509,55.946 52.5,68.5C 51.5084,68.3284 50.8417,68.6618 50.5,69.5C 46.9359,70.4227 43.2693,70.756 39.5,70.5C 31.4908,65.8079 28.3241,58.8079 30,49.5C 33.3398,41.6318 39.1731,37.6318 47.5,37.5 Z"/></g>
<g><path style="opacity:1" fill="#15171a" d="M 50.5,46.5 C 55.2822,45.6143 57.6155,47.6143 57.5,52.5C 57.5923,56.6579 55.5923,58.9913 51.5,59.5C 46.9223,58.1322 45.4223,55.1322 47,50.5C 48.3756,49.2949 49.5423,47.9616 50.5,46.5 Z"/></g>
<g><path style="opacity:1" fill="#57282c" d="M 96.5,54.5 C 101.665,55.5779 105.999,57.9112 109.5,61.5C 110.338,61.8417 110.672,62.5084 110.5,63.5C 111.348,64.625 112.348,64.625 113.5,63.5C 112.817,65.1765 111.483,65.8432 109.5,65.5C 108.833,64.1667 108.167,64.1667 107.5,65.5C 105.833,65.5 104.167,65.5 102.5,65.5C 98.8789,64.6275 95.2122,63.9608 91.5,63.5C 91.5,62.1667 91.5,60.8333 91.5,59.5C 92.8333,57.5 94.5,55.8333 96.5,54.5 Z"/></g>
<g><path style="opacity:1" fill="#6d2c27" d="M 91.5,59.5 C 91.5,60.8333 91.5,62.1667 91.5,63.5C 95.2122,63.9608 98.8789,64.6275 102.5,65.5C 99.0727,68.0564 95.406,70.3898 91.5,72.5C 88.1501,72.335 84.8168,72.5017 81.5,73C 80.2887,74.5778 78.9554,74.7445 77.5,73.5C 80.1667,70.1667 83.1667,67.1667 86.5,64.5C 87.9501,63.1502 88.6168,61.4835 88.5,59.5C 89.5,59.5 90.5,59.5 91.5,59.5 Z"/></g>
<g><path style="opacity:1" fill="#404d50" d="M 59.5,47.5 C 61.0443,47.7031 62.3777,48.3698 63.5,49.5C 65.198,48.3192 66.8647,48.3192 68.5,49.5C 67.7022,54.1417 67.0356,58.8084 66.5,63.5C 66.5,64.8333 66.5,66.1667 66.5,67.5C 64.4841,68.4859 63.1508,70.1526 62.5,72.5C 61.8076,71.9747 61.3076,71.3081 61,70.5C 60.2588,71.6405 59.4255,71.6405 58.5,70.5C 57.8076,71.0253 57.3076,71.6919 57,72.5C 56.2096,70.2102 54.8763,69.8769 53,71.5C 51.9889,70.9444 51.1556,70.2778 50.5,69.5C 50.8417,68.6618 51.5084,68.3284 52.5,68.5C 52.4346,68.9382 52.6012,69.2716 53,69.5C 59.7299,63.4801 61.8966,56.1468 59.5,47.5 Z"/></g>
<g><path style="opacity:1" fill="#37413e" d="M 28.5,24.5 C 29.0891,26.3733 28.4224,28.04 26.5,29.5C 24.114,33.3904 21.4473,37.2238 18.5,41C 17.0143,44.9403 15.6809,48.9403 14.5,53C 14.8919,54.0105 15.5585,54.5105 16.5,54.5C 15.9049,56.4404 15.5716,58.4404 15.5,60.5C 16.354,64.3736 17.354,68.207 18.5,72C 21.528,75.5368 22.1946,79.5368 20.5,84C 20.9583,86.831 22.2916,89.1643 24.5,91C 23.1308,93.2393 23.6308,95.0726 26,96.5C 26.1922,98.5767 26.6922,100.577 27.5,102.5C 29.608,101.52 31.608,101.854 33.5,103.5C 32.1336,105.227 30.8002,106.894 29.5,108.5C 27.6916,108.509 26.0249,108.009 24.5,107C 20.2477,103.419 16.7477,99.252 14,94.5C 8.0386,78.8237 7.0386,62.8237 11,46.5C 14.7192,37.3467 20.5526,30.0134 28.5,24.5 Z"/></g>
<g><path style="opacity:1" fill="#c98e7b" d="M 109.5,65.5 C 110.65,69.8076 110.65,74.1409 109.5,78.5C 108.833,79.1667 108.167,79.8333 107.5,80.5C 108.509,75.4731 108.509,70.4731 107.5,65.5C 108.167,64.1667 108.833,64.1667 109.5,65.5 Z"/></g>
<g><path style="opacity:1" fill="#e46951" d="M 102.5,65.5 C 104.167,65.5 105.833,65.5 107.5,65.5C 108.509,70.4731 108.509,75.4731 107.5,80.5C 107.672,81.4916 107.338,82.1583 106.5,82.5C 105.849,81.9094 105.182,81.2427 104.5,80.5C 97.4676,81.9198 90.4676,81.7532 83.5,80C 82.1667,79 82.1667,78 83.5,77C 86.3338,75.6362 89.0005,74.1362 91.5,72.5C 95.406,70.3898 99.0727,68.0564 102.5,65.5 Z"/></g>
<g><path style="opacity:1" fill="#3e4545" d="M 117.5,78.5 C 116.576,83.7548 113.576,87.0882 108.5,88.5C 107.602,87.8423 106.602,87.1757 105.5,86.5C 108.206,84.4763 109.539,81.8097 109.5,78.5C 110.65,74.1409 110.65,69.8076 109.5,65.5C 111.483,65.8432 112.817,65.1765 113.5,63.5C 113.5,62.1667 113.5,60.8333 113.5,59.5C 115.167,59.5 116.833,59.5 118.5,59.5C 118.653,65.8692 118.32,72.2026 117.5,78.5 Z"/></g>
<g><path style="opacity:1" fill="#1a2424" d="M 26.5,29.5 C 25.27,34.4651 23.6034,39.2985 21.5,44C 21.2582,46.3482 22.0916,48.1815 24,49.5C 24.3333,49.1667 24.6667,48.8333 25,48.5C 27.1774,52.566 28.1774,56.8993 28,61.5C 27.3946,59.5188 26.3946,59.1854 25,60.5C 24.3333,61.5 24.3333,62.5 25,63.5C 28.1988,62.7636 28.3655,63.5969 25.5,66C 27.2226,66.5232 28.556,67.5232 29.5,69C 29.0946,69.9454 28.428,70.6121 27.5,71C 28.7932,71.49 30.1266,71.6567 31.5,71.5C 32.8981,76.7065 35.5647,77.5398 39.5,74C 36.8749,72.6072 36.8749,71.4405 39.5,70.5C 43.2693,70.756 46.9359,70.4227 50.5,69.5C 51.1556,70.2778 51.9889,70.9444 53,71.5C 54.8763,69.8769 56.2096,70.2102 57,72.5C 57.3076,71.6919 57.8076,71.0253 58.5,70.5C 59.4255,71.6405 60.2588,71.6405 61,70.5C 61.3076,71.3081 61.8076,71.9747 62.5,72.5C 63.1508,70.1526 64.4841,68.4859 66.5,67.5C 64.936,71.6737 64.2694,76.007 64.5,80.5C 67.1403,80.4467 69.6403,79.78 72,78.5C 73.9386,78.9543 75.772,79.621 77.5,80.5C 77.8333,81.1667 78.1667,81.8333 78.5,82.5C 78.6309,83.3764 78.2975,84.0431 77.5,84.5C 74.655,84.8328 72.155,85.8328 70,87.5C 69.1667,86 68,84.8333 66.5,84C 67.3081,83.6924 67.9747,83.1924 68.5,82.5C 66.9547,81.5481 65.288,81.2148 63.5,81.5C 63.5,79.8333 63.5,78.1667 63.5,76.5C 62.1779,76.67 61.0113,76.3366 60,75.5C 59.5172,76.448 59.3505,77.448 59.5,78.5C 58.1667,78.5 56.8333,78.5 55.5,78.5C 55.5,79.5 55.5,80.5 55.5,81.5C 53.6096,81.2965 52.1096,81.9632 51,83.5C 50.6667,83.1667 50.3333,82.8333 50,82.5C 50.4866,84.0438 50.9866,85.7105 51.5,87.5C 48.0098,87.1506 45.6765,88.6506 44.5,92C 42.8659,92.4935 41.1992,92.6602 39.5,92.5C 39.7646,96.1299 41.0979,99.2966 43.5,102C 51.0204,102.772 58.3538,102.272 65.5,100.5C 61.9966,102.252 58.3299,104.085 54.5,106C 51.176,106.943 47.8426,107.776 44.5,108.5C 44.5,109.833 44.5,111.167 44.5,112.5C 43.5,112.5 42.5,112.5 41.5,112.5C 41.6107,111.883 41.944,111.383 42.5,111C 37.9244,110.728 33.5911,109.895 29.5,108.5C 30.8002,106.894 32.1336,105.227 33.5,103.5C 31.608,101.854 29.608,101.52 27.5,102.5C 26.6922,100.577 26.1922,98.5767 26,96.5C 23.6308,95.0726 23.1308,93.2393 24.5,91C 22.2916,89.1643 20.9583,86.831 20.5,84C 22.1946,79.5368 21.528,75.5368 18.5,72C 17.354,68.207 16.354,64.3736 15.5,60.5C 15.5716,58.4404 15.9049,56.4404 16.5,54.5C 15.5585,54.5105 14.8919,54.0105 14.5,53C 15.6809,48.9403 17.0143,44.9403 18.5,41C 21.4473,37.2238 24.114,33.3904 26.5,29.5 Z"/></g>
<g><path style="opacity:1" fill="#111b1c" d="M 47.5,37.5 C 39.1731,37.6318 33.3398,41.6318 30,49.5C 28.3241,58.8079 31.4908,65.8079 39.5,70.5C 36.8749,71.4405 36.8749,72.6072 39.5,74C 35.5647,77.5398 32.8981,76.7065 31.5,71.5C 30.1266,71.6567 28.7932,71.49 27.5,71C 28.428,70.6121 29.0946,69.9454 29.5,69C 28.556,67.5232 27.2226,66.5232 25.5,66C 28.3655,63.5969 28.1988,62.7636 25,63.5C 24.3333,62.5 24.3333,61.5 25,60.5C 26.3946,59.1854 27.3946,59.5188 28,61.5C 28.1774,56.8993 27.1774,52.566 25,48.5C 24.6667,48.8333 24.3333,49.1667 24,49.5C 22.0916,48.1815 21.2582,46.3482 21.5,44C 23.6034,39.2985 25.27,34.4651 26.5,29.5C 28.4224,28.04 29.0891,26.3733 28.5,24.5C 31.2749,21.3954 34.6082,19.0621 38.5,17.5C 39.4959,17.4142 40.3292,17.7476 41,18.5C 42.0086,17.3418 43.3419,16.6752 45,16.5C 48.1225,18.3689 51.6225,19.3689 55.5,19.5C 55.1854,21.2259 55.0187,22.8925 55,24.5C 57.1934,24.1481 59.3601,24.6481 61.5,26C 57.7628,27.6675 57.7628,29.0009 61.5,30C 60.8333,30.3333 60.1667,30.6667 59.5,31C 61.3586,32.6924 63.3586,34.1924 65.5,35.5C 64.4196,37.9962 63.0862,40.3295 61.5,42.5C 57.8143,37.8396 53.1477,36.1729 47.5,37.5 Z"/></g>
<g><path style="opacity:1" fill="#111b1b" d="M 78.5,82.5 C 81.245,84.1752 83.9117,85.8419 86.5,87.5C 84.8333,87.5 83.1667,87.5 81.5,87.5C 81.756,89.9124 80.756,91.5791 78.5,92.5C 75.9135,93.48 73.2469,93.8134 70.5,93.5C 70.5,95.1667 70.5,96.8333 70.5,98.5C 68.4862,98.3915 66.8195,99.0582 65.5,100.5C 58.3538,102.272 51.0204,102.772 43.5,102C 41.0979,99.2966 39.7646,96.1299 39.5,92.5C 41.1992,92.6602 42.8659,92.4935 44.5,92C 45.6765,88.6506 48.0098,87.1506 51.5,87.5C 50.9866,85.7105 50.4866,84.0438 50,82.5C 50.3333,82.8333 50.6667,83.1667 51,83.5C 52.1096,81.9632 53.6096,81.2965 55.5,81.5C 55.5,80.5 55.5,79.5 55.5,78.5C 56.8333,78.5 58.1667,78.5 59.5,78.5C 59.3505,77.448 59.5172,76.448 60,75.5C 61.0113,76.3366 62.1779,76.67 63.5,76.5C 63.5,78.1667 63.5,79.8333 63.5,81.5C 65.288,81.2148 66.9547,81.5481 68.5,82.5C 67.9747,83.1924 67.3081,83.6924 66.5,84C 68,84.8333 69.1667,86 70,87.5C 72.155,85.8328 74.655,84.8328 77.5,84.5C 78.2975,84.0431 78.6309,83.3764 78.5,82.5 Z"/></g>
<g><path style="opacity:1" fill="#8d3f2f" d="M 77.5,80.5 C 80.6091,81.7079 83.6091,83.2079 86.5,85C 93.0276,85.7613 99.361,85.2613 105.5,83.5C 104.426,84.8846 103.093,86.0513 101.5,87C 96.5111,87.4993 91.5111,87.6659 86.5,87.5C 83.9117,85.8419 81.245,84.1752 78.5,82.5C 78.1667,81.8333 77.8333,81.1667 77.5,80.5 Z"/></g>
<g><path style="opacity:0.008" fill="#000000" d="M 98.5,98.5 C 99.8333,99.1667 99.8333,99.1667 98.5,98.5 Z"/></g>
<g><path style="opacity:0.736" fill="#07090b" d="M 109.5,78.5 C 109.539,81.8097 108.206,84.4763 105.5,86.5C 106.602,87.1757 107.602,87.8423 108.5,88.5C 105.433,89.8709 102.433,91.5376 99.5,93.5C 100.243,94.1818 100.909,94.8485 101.5,95.5C 100.9,96.8999 99.9002,97.8999 98.5,98.5C 97.596,99.209 97.2627,100.209 97.5,101.5C 94.4816,101.335 91.4816,101.502 88.5,102C 89.8333,102.333 91.1667,102.667 92.5,103C 89.3061,104.116 86.1395,104.283 83,103.5C 81.2382,103.944 81.4049,104.444 83.5,105C 79.5,106.667 75.5,108.333 71.5,110C 64.1667,110.333 56.8333,110.667 49.5,111C 49.8333,111.333 50.1667,111.667 50.5,112C 48.5273,112.495 46.5273,112.662 44.5,112.5C 44.5,111.167 44.5,109.833 44.5,108.5C 47.8426,107.776 51.176,106.943 54.5,106C 58.3299,104.085 61.9966,102.252 65.5,100.5C 66.8195,99.0582 68.4862,98.3915 70.5,98.5C 70.5,96.8333 70.5,95.1667 70.5,93.5C 73.2469,93.8134 75.9135,93.48 78.5,92.5C 80.756,91.5791 81.756,89.9124 81.5,87.5C 83.1667,87.5 84.8333,87.5 86.5,87.5C 91.5111,87.6659 96.5111,87.4993 101.5,87C 103.093,86.0513 104.426,84.8846 105.5,83.5C 106.167,83.5 106.5,83.1667 106.5,82.5C 107.338,82.1583 107.672,81.4916 107.5,80.5C 108.167,79.8333 108.833,79.1667 109.5,78.5 Z"/></g>
<g><path style="opacity:0.125" fill="#676968" d="M 36.5,112.5 C 37.8333,112.5 39.1667,112.5 40.5,112.5C 42.2922,113.309 44.2922,113.809 46.5,114C 43.0248,114.447 39.6915,115.28 36.5,116.5C 36.5,115.167 36.5,113.833 36.5,112.5 Z"/></g>
</svg>
